<svg xmlns="http://www.w3.org/2000/svg" viewBox="0 0 64 64" shape-rendering="crispEdges">
  <path fill="#000" d="M25 3h14v3h7v4h5v6h4v22h-4v7h-6v4h-7v5h10v4h6v4H10v-4h6v-4h10v-5h-7v-4h-6v-7H9V16h4v-6h5V6h7z"/>
  <path fill="#d8d3c4" d="M25 6h14v3h7v5h5v26h-5v5h-7v3H25v-3h-7v-5h-5V14h5V9h7z"/>
  <path fill="#1e668b" d="M23 10h18v3h6v6h4v16h-4v6h-6v3H23v-3h-6v-6h-4V19h4v-6h6z"/>
  <path fill="#64a96a" d="M22 12h8v4h5v4h-3v4h-7v-3h-6v-5h3zM40 22h8v5h-3v5h-4v8h-6v-5h-4v-6h5v-4h4zM18 30h7v4h4v7h-6v-3h-5z"/>
  <path fill="#b9d8db" d="M29 10h4v34h-4zM13 25h38v4H13zM17 15h29v3H17zM17 36h29v3H17z" opacity=".55"/>
  <path fill="#808080" d="M29 48h6v8H18v2h28v-2H35v-8z"/>
  <path fill="#fff" d="M18 12h3v3h-3z"/>
</svg>
