<svg xmlns="http://www.w3.org/2000/svg" viewBox="0 0 64 64" shape-rendering="crispEdges">
  <path fill="#000" d="M7 4h50v39H7zM13 47h38v8H13zM8 56h48v5H8z"/>
  <path fill="#fff" d="M9 6h46v3H9zM9 9h3v31H9zM15 49h34v2H15zM10 58h44v1H10z"/>
  <path fill="#c0c0c0" d="M12 9h42v31H12zM16 43h32v8H16zM11 59h42v1H11z"/>
  <path fill="#808080" d="M12 37h42v3H12zM45 43h3v8H16v-2h29zM53 56h3v5H8v-2h45z"/>
  <path fill="#041b24" d="M16 12h34v21H16z"/>
  <path fill="#0b5164" d="M18 14h30v17H18z"/>
  <path fill="#5aa6b2" d="M20 16h26v2H20z"/>
  <path fill="#e8f5ed" d="M23 20h3v3h-3zM26 23h3v3h-3zM29 26h6v2h-6z"/>
  <path fill="#404040" d="M49 35h3v3h-3zM22 53h20v3H22z"/>
</svg>
