<svg xmlns="http://www.w3.org/2000/svg" viewBox="0 0 64 64" shape-rendering="crispEdges">
  <path fill="#000" d="M4 11h56v42H4z"/>
  <path fill="#fff" d="M6 13h52v3H6zM6 16h3v34H6z"/>
  <path fill="#c0c0c0" d="M9 16h48v34H9z"/>
  <path fill="#808080" d="M9 47h48v3H9zM54 16h3v34h-3z"/>
  <path fill="#0a6570" d="M12 19h42v7H12z"/>
  <path fill="#f1eee4" d="M13 29h16v16H13z"/>
  <path fill="#666" d="M19 31h5v5h-5zM16 39h11v5H16z"/>
  <path fill="#3f4140" d="M33 30h18v3H33zM33 36h15v2H33zM33 41h18v2H33z"/>
  <path fill="#d7b85b" d="M48 18h4v4h-4z"/>
  <path fill="#fff" d="M14 21h15v2H14z"/>
</svg>
