<svg xmlns="http://www.w3.org/2000/svg" viewBox="0 0 64 64" shape-rendering="crispEdges">
  <path fill="#000" d="M7 5h50v51H7z"/>
  <path fill="#fff" d="M9 7h46v3H9zM9 10h3v43H9z"/>
  <path fill="#c0c0c0" d="M12 10h42v43H12z"/>
  <path fill="#808080" d="M12 50h42v3H12zM51 10h3v43h-3z"/>
  <path fill="#f4f1e8" d="M16 14h32v31H16z"/>
  <path fill="#202020" d="M18 17h2v25h27v2H18z"/>
  <path fill="#177c68" d="M23 32h6v9h-6z"/>
  <path fill="#0c4f8a" d="M32 25h6v16h-6z"/>
  <path fill="#bd8434" d="M41 18h6v23h-6z"/>
  <path fill="#74b9a5" d="M24 33h2v7h-2z"/>
  <path fill="#6494c2" d="M33 26h2v14h-2z"/>
  <path fill="#e4b667" d="M42 19h2v21h-2z"/>
  <path fill="#404040" d="M22 57h20v3H22z"/>
</svg>
